<?xml version="1.0" encoding="UTF-8" standalone="no"?><!DOCTYPE svg PUBLIC "-//W3C//DTD SVG 1.1//EN" "http://www.w3.org/Graphics/SVG/1.1/DTD/svg11.dtd"><svg width="100%" height="100%" viewBox="0 0 3000 3000" version="1.1" xmlns="http://www.w3.org/2000/svg" xmlns:xlink="http://www.w3.org/1999/xlink" xml:space="preserve" xmlns:serif="http://www.serif.com/" style="fill-rule:evenodd;clip-rule:evenodd;stroke-linejoin:round;stroke-miterlimit:2;"><g><path d="M458.967,1692.3c-130.489,29.678 -247.881,104.017 -314.311,205.55c-66.428,101.534 -79.131,229.41 -27.698,337.252c70.609,148.046 253.772,242.396 438.569,253.411c184.796,11.008 367.903,-51.551 517.605,-145.87c138.995,115.813 329.674,164.313 519.644,134.666c189.97,-29.639 360.204,-141.833 443.595,-292.347c90.636,40.063 164.73,84.486 265.444,97.291c162.869,20.714 336.51,-19.184 460.547,-112.753c124.029,-93.57 193.762,-240.615 173.135,-381.809c-20.626,-141.202 -134.421,-271.05 -289.019,-319.96c169.895,-138.994 280.496,-331.122 236.648,-529.753c-43.848,-198.633 -210.723,-373.677 -427.88,-448.819c-217.157,-75.143 -477.649,-47.982 -667.911,69.641c-22.724,-60.965 -72.289,-88.03 -140.043,-113.938c-67.754,-25.907 -144.466,-30.762 -217.961,-22.639c-178.569,19.737 -343.063,118.254 -427.186,255.855c-84.124,137.599 -85.622,310.592 -3.895,449.267c-173.135,-39.509 -358.965,3.272 -473.024,122.606c-114.059,119.337 -143.782,302.802 -66.259,442.349Z" style="fill:#80b1dc;fill-rule:nonzero;"/><path d="M1562.36,1885.12c45.37,29.836 104.569,39.022 158.841,28.433c54.279,-10.589 103.418,-39.984 140.004,-78.991c36.585,-39.006 61.013,-87.23 74.677,-137.551c-5.117,58.285 -30.901,114.804 -72.328,158.557c-41.427,43.753 -98.269,74.496 -159.447,86.221c-28.985,5.558 -59.358,6.907 -87.988,-0.087c-48.381,-11.804 -87.474,-46.489 -113.36,-86.537c-16.125,-24.947 -27.818,-52.103 -37.729,-79.668c-1.459,-4.069 -13.586,-31.705 -9.32,-33.803c8.31,-4.068 13.94,20.233 15.951,24.877c19.657,45.378 47.104,89.872 90.699,118.549Z" style="fill:#231f20;fill-rule:nonzero;"/><path d="M1276.1,1484.2c53.988,0.198 107.408,23.332 142.527,61.723c-4.029,-38.588 -18.797,-76.948 -46.591,-105.681c-27.787,-28.732 -69.474,-46.718 -110.649,-42.688c-52.946,5.172 -95.154,43.887 -124.896,85.227c-8.066,11.212 -24.703,35.624 -10.353,48.074c13.751,11.93 29.545,-6.923 40,-13.822c31.926,-21.068 70.846,-32.967 109.962,-32.833Z" style="fill:#231f20;fill-rule:nonzero;"/><path d="M1077.15,1692.09c-12.411,5.89 -24.404,13.223 -32.801,23.615c-8.406,10.384 -12.766,24.262 -8.8,36.751c6.442,20.28 31.082,29.837 53.278,33.779c31.721,5.63 64.624,5.354 96.235,-0.812c17.685,-3.446 35.308,-8.886 49.777,-19.018c14.469,-10.124 25.507,-25.508 26.572,-42.397c2.35,-37.035 -32.801,-44.518 -62.977,-49.123c-41.032,-6.268 -84.147,-0.402 -121.284,17.205Z" style="fill:#eb7d5e;fill-rule:nonzero;"/><path d="M2091.23,1484.2c-53.988,0.198 -107.408,23.332 -142.535,61.723c4.029,-38.588 18.798,-76.948 46.592,-105.681c27.794,-28.732 69.481,-46.718 110.656,-42.688c52.947,5.172 95.154,43.887 124.896,85.227c8.058,11.212 24.695,35.624 10.345,48.074c-13.751,11.93 -29.537,-6.923 -39.992,-13.822c-31.926,-21.068 -70.845,-32.967 -109.962,-32.833Z" style="fill:#231f20;fill-rule:nonzero;"/><path d="M2290.18,1692.09c12.41,5.89 24.403,13.223 32.801,23.615c8.397,10.384 12.757,24.262 8.791,36.751c-6.434,20.28 -31.074,29.837 -53.278,33.779c-31.721,5.63 -64.624,5.354 -96.227,-0.812c-17.685,-3.446 -35.308,-8.886 -49.785,-19.018c-14.468,-10.124 -25.499,-25.508 -26.572,-42.397c-2.349,-37.035 32.809,-44.518 62.985,-49.123c41.033,-6.268 84.139,-0.402 121.285,17.205Z" style="fill:#eb7d5e;fill-rule:nonzero;"/><path d="M2935.5,1787.69c-5.401,-36.996 -17.346,-73.164 -34.606,-107.345c-6.49,54.335 -20.785,107.826 -43.848,158.809c-63.505,140.351 -195.726,259.207 -361.048,306.982c-165.33,47.774 -361.126,18.324 -488.428,-84.628c-88.626,140.831 -253.608,243.886 -436.103,272.406c-182.496,28.511 -378.774,-18.104 -518.809,-123.217c-182.938,78.36 -390.983,158.517 -584.009,101.021c-160.179,-47.711 -272.404,-195.182 -259.682,-341.233c9.199,-105.618 83.287,-203.28 186.527,-259.381c-104.351,36.712 -195.423,102.054 -250.835,186.745c-66.428,101.534 -79.132,229.41 -27.698,337.252c70.609,148.046 253.772,242.396 438.569,253.411c184.796,11.008 367.903,-51.551 517.605,-145.87c138.995,115.813 329.674,164.313 519.644,134.666c189.97,-29.639 360.204,-141.833 443.595,-292.347c90.636,40.063 164.73,84.478 265.444,97.291c162.869,20.714 336.51,-19.184 460.547,-112.753c124.029,-93.578 193.762,-240.615 173.135,-381.809Z" style="fill:#6da6db;fill-rule:nonzero;"/><path d="M976.653,1085.13c5.606,0.059 11.197,0.011 16.811,0.201c-7.941,-6.318 -16.464,-13.241 -25.295,-20.287c2.649,6.755 5.488,13.439 8.484,20.086Z" style="fill:#6da6db;fill-rule:nonzero;"/><path d="M560.956,1255.7c43.55,-53.71 99.374,-94.062 162.464,-122.027c-75.947,21.758 -144.941,60.555 -198.194,116.271c-112.001,117.185 -142.425,296.1 -70.095,434.653c22.457,-7.885 45.708,-14.082 69.693,-17.891c-73.997,-129.217 -59.604,-292.93 36.132,-411.006Z" style="fill:#6da6db;fill-rule:nonzero;"/><path d="M2536.96,659.954c148.582,107.092 229.142,291.363 203.406,465.28c-4.392,-162.746 -90.597,-321.928 -228.204,-421.414c-66.58,-48.133 -144.663,-81.861 -226.532,-99.587c-40.962,-8.867 -82.917,-13.757 -124.951,-14.455c-26.754,-0.445 -96.976,17.19 -111.406,-7.087c57.315,-39.63 182.551,-28.599 249.525,-18.224c86.032,13.325 168.949,45.596 238.162,95.487Z" style="fill:#a0c8e7;fill-rule:nonzero;"/><path d="M1475.93,490.733c-118.004,8.423 -232.493,55.255 -319.281,130.604c-86.789,75.349 -145.303,178.717 -163.185,288.271c39.889,-123.619 131.424,-231.925 250.738,-296.681c87.073,-47.255 188.283,-70.971 288.815,-69.039c26.327,0.505 108.779,21.821 75.024,-23.134c-23.844,-31.755 -96.282,-32.579 -132.111,-30.021Z" style="fill:#a0c8e7;fill-rule:nonzero;"/><path d="M2511.15,1517.72c57.362,4.991 112.131,32.32 148.543,74.118c36.412,41.797 53.995,97.528 47.695,151.145c17.276,-48.145 13.728,-102.535 -9.666,-148.354c-24.483,-48.121 -66.667,-77.138 -115.451,-100.721c8.051,-9.588 141.352,-124.747 91.567,-139.342c-21.029,-6.166 -144.561,144.388 -162.688,163.154Z" style="fill:#a0c8e7;fill-rule:nonzero;"/></g></svg>